<?xml version="1.0" encoding="utf-8"?>
<!-- Generator: Adobe Illustrator 18.1.1, SVG Export Plug-In . SVG Version: 6.00 Build 0)  -->
<svg version="1.1" id="Layer_1" xmlns="http://www.w3.org/2000/svg" xmlns:xlink="http://www.w3.org/1999/xlink" x="0px" y="0px"
	 viewBox="0 0 99.7 83.9" enable-background="new 0 0 99.7 83.9" xml:space="preserve">
<g>
	<path fill="#FFFFFF" d="M79.9,17.8c-0.4-6.2-2.9-10.1-5-12.3C71.6,1.9,67,0,61.9,0c-4,0-8.2,1.2-11.9,3.4C46.3,1.2,42.1,0,38.1,0
		c-5.1,0-9.7,1.9-13,5.5c-2.1,2.2-4.5,6.2-5,12.3H0.3v66.1h99.4V17.8H79.9z M90.1,74.2H10V27.5h11.1c0,0.1,0,0.1,0,0.2h11.2
		c0-0.1,0-0.1-0.1-0.2l0,0l0,0c-0.9-2.5-1.4-5.1-1.4-7.8c0-0.7,0.1-1.3,0.1-1.9l0,0l0,0c0.8-6.4,5.4-7.8,9.9-6.6c0,0,0,0,0,0
		c0.2,0.1,0.5,0.1,0.7,0.2c0,0,0,0,0,0c1.2,0.4,2.4,1,3.5,1.8l0,0c0.2,0.1,0.4,0.3,0.6,0.5c0,0,0,0,0,0c1.3,1,2.3,2.2,3,3.4
		c0,0,0,0,0,0c0.1,0.2,0.2,0.4,0.3,0.7l0,0l0,0c0.4,1,0.7,2,0.7,3c0-1,0.3-2,0.7-3l0,0l0,0c0.1-0.2,0.2-0.4,0.3-0.6c0,0,0,0,0,0
		c0.7-1.3,1.8-2.5,3-3.4c0,0,0,0,0,0c0.2-0.2,0.4-0.3,0.6-0.5l0,0c1.1-0.8,2.3-1.4,3.5-1.8c0,0,0,0,0,0c0.2-0.1,0.5-0.2,0.7-0.2
		c0,0,0,0,0,0c4.9-1.3,10.1,0.5,10.1,8.5c0,2.7-0.5,5.3-1.4,7.8l0,0h0c0,0.1,0,0.1-0.1,0.2H79c0-0.1,0-0.1,0-0.2h11.1V74.2z"/>
	<path fill="#FFFFFF" d="M65.5,35.3c-4.9,8.9-13.3,15.5-15.2,17.1c-0.1,0.1-0.2,0.1-0.2,0.2c0,0,0,0,0,0c0,0,0,0,0,0
		c-0.1-0.1-0.2-0.1-0.3-0.2c-1.9-1.6-10.3-8.2-15.2-17.1H22.6c1.7,4.3,4.3,8.7,7.7,13c4.9,6.1,10.2,10.4,12.2,12.1
		c0.2,0.1,0.3,0.2,0.4,0.3L50,67l7.1-6.3c0.1-0.1,0.2-0.2,0.4-0.3c2-1.6,7.3-6,12.2-12.1c3.4-4.3,6-8.6,7.7-13H65.5z"/>
</g>
</svg>
