<?xml version="1.0" encoding="utf-8"?>
<!-- Generator: Adobe Illustrator 18.1.1, SVG Export Plug-In . SVG Version: 6.00 Build 0)  -->
<svg version="1.1" id="Layer_1" xmlns="http://www.w3.org/2000/svg" xmlns:xlink="http://www.w3.org/1999/xlink" x="0px" y="0px"
	 viewBox="0 703.1 612 88.9" enable-background="new 0 703.1 612 88.9" xml:space="preserve">
<rect x="544.2" y="712.6" fill="#981E32" width="3.9" height="4.3"/>
<path fill="#5E6A71" d="M137.9,737.5l-1.6-1.8c0.4-0.2,0.8-0.5,1.2-0.7L137.9,737.5z M139.7,735.1c-0.3-0.1-0.7-0.2-1.2-0.2
	c-0.1,0-0.2,0-0.2,0l0.4,2.5L139.7,735.1z M142.6,738.5c-0.1-0.5-0.2-1-0.4-1.4l-2.2,1.4H142.6z M141.7,736.3
	c-0.3-0.4-0.7-0.7-1.2-0.9l-1.1,2.4L141.7,736.3z M135.6,736.2c-0.3,0.3-0.6,0.7-0.7,1.2l2.4,0.7L135.6,736.2z M612,740.2v52H0
	v-49.5c8.6,0,10.4-0.1,11.8-0.2l0.2-0.4l1.9-1.7l9-0.5c4.5-2.1,3.5-4.9,8.2-6l5.9-5.3l6.1-6l2.8,2.5l0.4-4l1.9-1.2l0.6,0.6l0.7-1.4
	l1.7-1.2l3-2.8L58,717l1,1.9l1.6-1.1l3.8,2.3l1.5,2.2c5.1-0.2,3.5,4.4,8.5,5.6c2.6,0.7,1.3,3.5,4.1,3.4c0.7-0.1,4.1,1,3.8,0.8
	c1.8,1.1,2.1,2.5,3.5,1.4l1.3-0.9l1.9,0.2l1.5-0.7l0.9-0.7l1.5,1l1.3-0.5c13.2,8.6,20.7,8,23.1,10.9h15v-1.2h3.1
	c-0.2-0.2-0.4-0.6-0.6-0.9l2.4-0.7l-1.4,1.6h1l1.2-1.4l-0.2,1.4h0.7l0.2-1.3l0.7,1.3h0.8l-0.8-1.6l1.4,0.8v-0.8l-0.9-0.6h2.6v0.1
	h0.3v-3.9h1.9v-7.1h6.2v4.3h0.9v-1.2h0.7v-3.4h4.7l0.1-0.7h2v3.5h2.1v-3.1h0.9v-4.7h3.9l0.1,9.2h2v-2.1h2.6v3h0.5l-0.1-5.7l2.2-1.9
	l2.3,1.8v1.1h2.6l0.1,5.9h1.2v-1.7h1V728l6.5-0.1l0.3-4v-0.2l-1.6-4.4c-2.1-0.4-3.6-1.4-3.6-1.9c0-0.4,1.2-0.8,2.8-1.1
	c0.3-0.6,0.6-1,0.7-1.1c0.2-0.2,1.1-0.2,2.1-0.3l0.1-1.1l-0.2-6.8l0.2-1l0.3,1.1v0.7c0.7-0.4,1.4-0.6,2.1-0.5
	c0.5,0.1,0.9,0.2,1.2,0.5c0.3,0.2,0.5,0.6,0.4,1c0,0.2-0.1,0.3-0.1,0.5l-0.2,0.7c0.8,0.8,2,1.2,3.4,1.4c0.8,0.1,1.6-0.1,2.3-0.5
	c-0.8,0.9-1.7,1.4-2.7,1.8s-2.1,0.6-3.2,0.5c-0.5-0.1-0.9-0.2-1.2-0.3c-0.3-0.2-0.4-0.3-0.4-0.6l0.4-1.8c-0.7-0.1-1.3,0.2-2,0.7
	l0.2,4c1,0,2,0.1,2.1,0.2c0.1,0.1,0.4,0.6,0.7,1.1c1.6,0.2,2.8,0.6,2.8,1.1s-1.4,1.4-3.5,1.9l-1.6,4.4l0,0l0.7,8.1h2.9v-4.3h1.2
	l-0.1-6.5h5.4l0.1,12.8h2.7v-2.8h3.7v4.2h0.7l-0.1-7.9l3-2.6l3.2,2.5l0.1,2.3h1.8l-0.1,3.6h0.7v-1.1h0.6l0.1-2.9l4,0.1l0.1-0.5
	l1.4-0.1l0.2,3h1.7v-2.6h0.7l-0.1-1.2l3.3,0.1v5h1.6v-1.7h2.3v1.6c0.2,0,0.2-0.1,0.4-0.1l0.1-3.7l1.9-1.6l2,1.6v2.5l3.9-1.6l2-2.5
	l2.8-0.6l2.8,0.5l2.3-1.2l2.1-1l0.9-0.5l0.8-0.3l1.9-0.2l1.3,0.5l2.1,0.7l2-0.5l2.3-3.2l1.6-1.7l1.8,0.3l1.9-2.6l2.3-1.9l1.3-1.1
	l1.2,1.7l0.7,0.7l1.9-0.8l0.7,1l1.3-0.4l2.8-1.7l1.7-0.8l2.5-3.3l2.3-1.2l2.8-2l1.6-0.7l3.5-3.3l1.5-0.1l1.1,0.7l1.6-1.4l2.1-0.1
	l1.5,0.8l2.4-0.2l3.3,1.4l3.3,3.2l1.1-0.2l4.1,2.8l3.9,2.5l4.6,2.8l3.5,2.3l1.6,0.6l2.1-1l1.7,1.5l1.6,2.9l1.8-1.2l1.2,0.9l1.9,0.9
	l2.4-0.3c0,0,1.4,1,1.6,1.1l1.2,2.1c0,0,2.4-0.3,2.5-0.3l1.6-1.8v-1h13.7v1l1.7,1.7h5.6v1l3.1,3.7h2.4c1.6-0.6,3.3-1.1,5-1.4
	l10.9-7.2l0,0l0,0c0.1,0,0.2-0.1,0.2-0.1l0,0l0,0c0.1,0,0.2,0,0.2,0.1h0.1l9.9,5.7c0.1,0,0.1,0,0.2,0l10.2-5.6l0,0l0,0
	c0.1,0,0.2-0.1,0.2-0.1l0,0l0,0l0,0l0,0l0,0c0.1,0,0.2,0,0.2,0.1l0,0l0,0l10.1,8.6c1.6,0.4,3.1,0.9,4.4,1.5l2.1-0.3
	c2.9-3,6.1-1.4,9.1-1.3c3-2.3,3.8-1.1,11.7,0c1.4-2.1,9,0.3,12.3,0.9c0.3-0.8,2.3-0.9,5.2-0.6c5.3-1.9,10.8-5.8,11.5-6.9
	c0.1-0.6,1.3-1.1,2.9-0.9c1.6,0.1,2.7,0.7,2.7,1.2c0.2,0.7,1.9,4.8,6.9,7.2v-5.4l0,0v-0.1l0,0v-0.2l-0.2-0.3c-0.1,0-0.2,0-0.2,0V725
	h0.1v-0.3c-0.1,0-0.1,0-0.1,0v-0.2h0.1v-2.8c-0.1,0-0.1,0-0.1,0v-0.2h0.1v-0.1c-0.1,0-0.2,0-0.2,0v-0.2l0.3-0.1l2.7-3.7l2.7,3.7
	l0.3,0.1v0.2c0,0-0.1,0-0.2,0v0.1h0.1v0.2c0,0,0,0-0.1,0v2.8h0.1v0.2c0,0,0,0-0.1,0v0.3h0.1v0.2c0,0-0.1,0-0.2,0l-0.2,0.3v0.2l0,0
	v0.1l0,0v8.7c1.8,0,4.8-0.2,7.9-0.7v-3.3h7.6v-10h2.4v2.8l2.1-2.1l2.4,2.4v-3h2.4v4.8h4.6l1.9-1.9l2.5,2.5h5.2v-5.5h7.3v-8.8h0.2
	c-0.2-0.1-0.2-0.2-0.2-0.5c0-0.3,0.2-0.6,0.6-0.6c0.3,0,0.6,0.2,0.6,0.6c0,0.2-0.1,0.3-0.2,0.5h3.5c-0.2-0.1-0.2-0.2-0.2-0.5
	c0-0.3,0.2-0.6,0.6-0.6c0.3,0,0.6,0.2,0.6,0.6c0,0.2-0.1,0.3-0.2,0.5h0.2v8.8h5.7v4.5h2.3l0.7-0.7l0.7,0.7h2.7v3.4h2.9v-3.3h8.4v1.9
	l2.8,3.4l2.1-2.1l1.7,1.7v3.2h6.7v3.4h2.3v-2h3.6v2.4h3.8v2.3C601,741.2,606.6,736.1,612,740.2z M383.9,728.3
	c0.7-0.1,1.2-0.2,1.9-0.3l2.8-2.8L383.9,728.3z M387.4,727.8c0.6-0.1,1.1-0.2,1.6-0.2l1.5-3L387.4,727.8z M391.4,729.6
	c-4.5,0.3-8.8,1-12.5,2.1l2.9,2h9.6V729.6z M391.4,725.3l-1.2,2.2c0.4,0,0.7-0.1,1.2-0.1V725.3z M404.7,727.5c0.5,0,1.1,0.1,1.6,0.1
	l3-2.6L404.7,727.5z M407.7,727.7c0.6,0.1,1.1,0.1,1.6,0.2l1.9-3.2L407.7,727.7z M396.5,725l2.5,2.2c0.5,0,1,0,1.4,0L396.5,725z
	 M394.2,724.3l1.6,2.9c0.6,0,1.2,0,1.7,0L394.2,724.3z M393.4,727.3c0.4,0,0.8,0,1.2-0.1l-1.2-2.3V727.3z M412.1,730.2
	c-6-0.8-12.5-1.1-18.7-0.8v4.2h18.7V730.2z M412.1,725.2l-1.6,2.8c0.6,0.1,1.1,0.2,1.6,0.2V725.2z M417.2,726.2l2.6,3.3
	c0.6,0.1,1.1,0.2,1.6,0.3L417.2,726.2z M415.3,725.5l1.5,3.4c0.5,0.1,1,0.2,1.4,0.2L415.3,725.5z M414.1,728.5
	c0.5,0.1,1,0.2,1.5,0.2l-1.5-3.2V728.5z M425.3,733.1c-3.2-1.1-7-2-11.2-2.5v3h10.1L425.3,733.1z M486.6,733.5
	c-3.5-3.6-7-4.5-13.5-2.2C477.1,731.8,481.9,732.8,486.6,733.5z M496.6,723.2c0-0.8-0.7-1.5-1.5-1.5s-1.5,0.7-1.5,1.5
	s0.7,1.5,1.5,1.5S496.6,724,496.6,723.2z M548,714.8c0-0.9-0.7-1.6-1.6-1.6c-0.9,0-1.6,0.7-1.6,1.6c0,0.9,0.7,1.6,1.6,1.6
	C547.3,716.5,548,715.7,548,714.8z M137,738.8l-2.4-0.7c0,0.2-0.1,0.4-0.1,0.6s0,0.5,0.1,0.8L137,738.8z M138.5,737.8
	c-0.6,0-1,0.4-1,1c0,0.6,0.4,1,1,1s1-0.4,1-1C139.6,738.2,139.1,737.8,138.5,737.8z"/>
</svg>
